HIERARCHY
ROOT Pelvis
{

	OFFSET     0.000000     0.000000     0.000000
	CHANNELS 6 Xposition Yposition Zposition Zrotation Xrotation Yrotation
	JOINT LowerBack
	{

		OFFSET    -0.000691     0.176488     0.017766
		CHANNELS 3 Zrotation Xrotation Yrotation
		JOINT Chest
		{

			OFFSET    -0.002754     0.128976    -0.000512
			CHANNELS 3 Zrotation Xrotation Yrotation
			JOINT back3
			{

				OFFSET     0.002471     0.201657    -0.000850
				CHANNELS 3 Zrotation Xrotation Yrotation
				JOINT Neck
				{

					OFFSET     0.001840     0.072570     0.000595
					CHANNELS 3 Zrotation Xrotation Yrotation
					JOINT Head
					{

						OFFSET     0.003323     0.152818     0.030907
						CHANNELS 3 Zrotation Xrotation Yrotation
						JOINT joint7
						{

							OFFSET     0.000612     0.183936     0.002625
							CHANNELS 3 Zrotation Xrotation Yrotation
							End Site
							{
								OFFSET     0.000000     0.000000     0.018310
							}
						}

					}

				}

				JOINT LeftCollar
				{

					OFFSET     0.053456     0.093486     0.002205
					CHANNELS 3 Zrotation Xrotation Yrotation
					JOINT LeftShoulder
					{

						OFFSET     0.112884    -0.020868     0.002319
						CHANNELS 3 Zrotation Xrotation Yrotation
						JOINT LeftElbow
						{

							OFFSET     0.297302     0.003523    -0.020737
							CHANNELS 3 Zrotation Xrotation Yrotation
							JOINT LeftWrist
							{

								OFFSET     0.290007     0.004431    -0.007313
								CHANNELS 3 Zrotation Xrotation Yrotation
								JOINT lf_hand
								{

									OFFSET     0.117001    -0.002589    -0.008771
									CHANNELS 3 Zrotation Xrotation Yrotation
									End Site
									{
										OFFSET     0.000000    -0.009821     0.000000
									}
								}

							}

						}

					}

				}

				JOINT RightCollar
				{

					OFFSET    -0.048666     0.096092     0.000301
					CHANNELS 3 Zrotation Xrotation Yrotation
					JOINT RightShoulder
					{

						OFFSET    -0.115072    -0.022479    -0.001894
						CHANNELS 3 Zrotation Xrotation Yrotation
						JOINT RightElbow
						{

							OFFSET    -0.297072     0.004954    -0.020752
							CHANNELS 3 Zrotation Xrotation Yrotation
							JOINT RightWrist
							{

								OFFSET    -0.292425    -0.005826    -0.023258
								CHANNELS 3 Zrotation Xrotation Yrotation
								JOINT rt_hand
								{

									OFFSET    -0.118185    -0.001061    -0.015047
									CHANNELS 3 Zrotation Xrotation Yrotation
									End Site
									{
										OFFSET     0.000000    -0.009987     0.000000
									}
								}

							}

						}

					}

				}

			}

			JOINT joint13
			{

				OFFSET     0.125914     0.117470     0.000000
				CHANNELS 3 Zrotation Xrotation Yrotation
				End Site
				{
					OFFSET     0.000000     0.000000    -0.017144
				}
			}

			JOINT joint14
			{

				OFFSET    -0.120063     0.114907     0.000000
				CHANNELS 3 Zrotation Xrotation Yrotation
				End Site
				{
					OFFSET     0.000000     0.000000    -0.016479
				}
			}

		}

	}

	JOINT RightHip
	{

		OFFSET    -0.109283    -0.057257     0.000987
		CHANNELS 3 Zrotation Xrotation Yrotation
		JOINT RightKnee
		{

			OFFSET     0.002149    -0.429339     0.038617
			CHANNELS 3 Zrotation Xrotation Yrotation
			JOINT RightAnkle
			{

				OFFSET    -0.001765    -0.522522    -0.077092
				CHANNELS 3 Zrotation Xrotation Yrotation
				JOINT r_ball
				{

					OFFSET    -0.000000    -0.037315     0.142913
					CHANNELS 3 Zrotation Xrotation Yrotation
					End Site
					{
						OFFSET     0.000000     0.000000     0.014648
					}
				}

			}

		}

	}

	JOINT LeftHip
	{

		OFFSET     0.098180    -0.056757     0.003895
		CHANNELS 3 Zrotation Xrotation Yrotation
		JOINT LeftKnee
		{

			OFFSET     0.007057    -0.430531     0.035812
			CHANNELS 3 Zrotation Xrotation Yrotation
			JOINT LeftAnkle
			{

				OFFSET    -0.005475    -0.521755    -0.078136
				CHANNELS 3 Zrotation Xrotation Yrotation
				JOINT lf_ball
				{

					OFFSET     0.000065    -0.036737     0.143337
					CHANNELS 3 Zrotation Xrotation Yrotation
					End Site
					{
						OFFSET     0.000000     0.000000     0.014648
					}
				}

			}

		}

	}

}

MOTION
Frames: 5
Frame Time: 0.033333
    0.945631     0.894174    -2.214256   -10.631205    -7.529249   137.625259    -6.197449    -1.194802     9.965829   -10.337138     9.004813    10.161512     0.000000     0.000000     0.000000     0.000000     0.000000     0.000000    11.289215   -24.232653   -27.644772     0.000000     0.000000     0.000000    15.182895     2.180904     8.017323   -85.271042   -14.550057    23.023230     0.734970     1.709942   -46.515652    16.343819     2.880108    14.376590     0.000000     0.000000     0.000000   -16.664219    -1.320329     4.375407    93.938179    21.817841    -8.543712    -1.499169     2.196328    68.629829   -12.585036    20.149200    -2.581918     0.000000     0.000000     0.000000     0.000000     0.000000     0.000000     0.000000     0.000000     0.000000    -0.595630   -21.964558   -21.576845     0.000000    45.042236     0.000000   -17.380585     7.194098    -8.860272     0.000000     0.000000     0.000000    -3.948821   -30.070261     6.801380    -0.008366    17.501900     0.008366     3.351459    -7.539568     9.412643     0.000000     0.000000     0.000000 
    0.975905     0.904683    -2.232095   -10.173594    -7.071345   137.541229    -6.003217    -1.120487     8.228770    -9.327502     8.977263     8.449099     0.000000     0.000000     0.000000     0.000000     0.000000     0.000000    11.635493   -21.863955   -24.040863     0.000000     0.000000     0.000000    14.908100     1.801703     6.740410   -88.556824    -2.278394    17.776114     0.680054     1.657234   -44.619759    14.913161     3.583392    14.371140     0.000000     0.000000     0.000000   -15.725003    -1.277090     4.486148    91.743500    24.428085   -10.164954    -1.501282     2.203574    68.830002   -13.172463    25.647167    -4.504748     0.000000     0.000000     0.000000     0.000000     0.000000     0.000000     0.000000     0.000000     0.000000    -8.418981   -29.534164   -26.959572    -0.011003    55.808727     0.005827   -14.466168     8.856649   -13.036035     0.000000     0.000000     0.000000    -3.120340   -25.642591     8.565451    -0.007174    14.718637     0.000927     2.626086    -8.510676     7.963161     0.000000     0.000000     0.000000 
    1.006289     0.915461    -2.247440    -9.405087    -6.561432   138.093323    -5.749612    -1.114247     6.258245    -8.202061     8.846612     6.469609     0.000000     0.000000     0.000000     0.000000     0.000000     0.000000    11.933209   -19.457853   -20.680025     0.000000     0.000000     0.000000    14.920689     1.544947     5.805082   -90.087624     8.407857    12.411837     0.678891     1.657612   -44.541725    14.617631     4.327117    12.980306     0.000000     0.000000     0.000000   -14.710217    -1.088905     4.114164    92.303467    22.084009   -13.820339    -1.535251     2.214194    69.766579   -10.839333    26.160391    -5.915509     0.000000     0.000000     0.000000     0.000000     0.000000     0.000000     0.000000     0.000000     0.000000   -11.866824   -30.663773   -30.884130    -0.010407    53.014336     0.005190   -12.583275     6.947899   -13.926521     0.000000     0.000000     0.000000    -2.417210   -20.646511    10.144263    -0.000681    10.973533     0.007094     1.693717    -8.805833     5.929882     0.000000     0.000000     0.000000 
    1.036647     0.925642    -2.259826    -8.302311    -5.953792   139.366089    -5.454572    -1.153350     4.203838    -7.038730     8.632853     4.377172     0.000000     0.000000     0.000000     0.000000     0.000000     0.000000    12.117230   -16.842667   -17.813852     0.000000     0.000000     0.000000    15.304364     1.537229     5.598638   -89.099396    16.371218     5.981139     0.756171     1.731242   -47.186844    17.067595     4.945706     8.914092     0.000000     0.000000     0.000000   -13.660723    -0.862848     3.553931    93.471817    17.110357   -18.376629    -1.597130     2.230275    71.210587    -7.230508    24.841425    -7.055938     0.000000     0.000000     0.000000     0.000000     0.000000     0.000000     0.000000     0.000000     0.000000   -13.505156   -29.475470   -34.188610     0.000000    44.603115     0.000000   -10.149138     3.509650   -13.572214     0.000000     0.000000     0.000000    -1.737749   -15.248581    10.873895     0.000000     6.530400     0.000000     0.451112    -8.412868     4.032362     0.000000     0.000000     0.000000 
    1.067935     0.934320    -2.269821    -6.973221    -5.243824   141.057816    -5.148081    -1.255384     2.219544    -5.925677     8.378284     2.330751     0.000000     0.000000     0.000000     0.000000     0.000000     0.000000    12.178705   -14.108253   -15.469320     0.000000     0.000000     0.000000    15.990635     1.641749     5.741865   -86.040154    22.696577    -1.673536     0.896071     1.851871   -51.639194    20.715933     5.260623     3.389390     0.000000     0.000000     0.000000   -12.604711    -0.661878     2.932514    94.309067    10.994028   -22.576298    -1.649875     2.244101    72.643845    -3.480361    22.324875    -7.861994     0.000000     0.000000     0.000000     0.000000     0.000000     0.000000     0.000000     0.000000     0.000000   -13.691769   -27.112970   -36.384415     0.000000    33.725521     0.000000    -6.942822     0.273000   -12.471841     0.000000     0.000000     0.000000    -0.848522    -9.663651     9.945910     0.000000     1.777122     0.000000    -1.160789    -7.628065     3.422270     0.000000     0.000000     0.000000 
